<?xml version="1.0" encoding="utf-8"?>
<!-- Generator: Adobe Illustrator 27.5.0, SVG Export Plug-In . SVG Version: 6.00 Build 0)  -->
<svg version="1.1" id="Layer_1" xmlns="http://www.w3.org/2000/svg" xmlns:xlink="http://www.w3.org/1999/xlink" x="0px" y="0px"
	 viewBox="0 0 900 900" style="enable-background:new 0 0 900 900;" xml:space="preserve">
<style type="text/css">
	.st0{fill-rule:evenodd;clip-rule:evenodd;}
	.st1{fill:#F0503E;}
	.st2{fill:#FFFFFF;}
</style>
<g>
	<ellipse class="st0" cx="458.46" cy="439.03" rx="366.09" ry="365.17"/>
</g>
<g>
	<path class="st1" d="M452.49,856.89c-56.77,0-111.89-10.82-163.82-32.16c-50.21-20.63-95.31-50.17-134.07-87.79
		c-38.84-37.7-69.35-81.63-90.69-130.56C41.78,555.61,30.55,501.7,30.55,446.15S41.78,336.7,63.92,285.93
		c21.34-48.93,51.85-92.86,90.69-130.56c38.76-37.62,83.87-67.16,134.07-87.79c51.93-21.34,107.05-32.16,163.82-32.16
		c56.77,0,111.89,10.82,163.82,32.16c50.21,20.63,95.31,50.16,134.07,87.79c38.84,37.7,69.35,81.63,90.68,130.56
		c22.14,50.77,33.36,104.68,33.36,160.23s-11.23,109.45-33.36,160.23c-21.34,48.93-51.85,92.86-90.68,130.56
		c-38.76,37.62-83.87,67.16-134.07,87.79C564.38,846.07,509.26,856.89,452.49,856.89z M452.49,113.53
		c-189.59,0-343.83,149.22-343.83,332.63c0,183.41,154.24,332.63,343.83,332.63c189.59,0,343.83-149.22,343.83-332.63
		C796.32,262.74,642.08,113.53,452.49,113.53z"/>
</g>
<g>
	<path class="st2" d="M457.25,418.89c-77.11,0-154.21,0-231.32,0c-21.21,0-30-9.24-29.12-31.61c1.59-40.24,17.82-73.98,44.26-102.6
		c37.09-40.15,84.11-60.72,135.58-71.41c47.97-9.96,96.32-10.77,144.55-2.11c60.79,10.91,115.44,35.1,157.65,83.6
		c21.46,24.66,35.14,53.7,39.05,87.07c0.63,5.4,0.59,11.11-0.36,16.44c-2.52,14.24-10.43,20.58-24.74,20.59
		C614.28,418.88,535.76,418.87,457.25,418.89 M443.24,296.71c-7.58-12.67-17.12-14.91-28.93-7.25
		C419.94,301.39,429.48,303.93,443.24,296.71 M339.68,315.67c7.96,11.03,18.04,11.88,29,2.93
		C361.17,307.06,350.02,305.78,339.68,315.67 M409.69,331.9c5.77,12.58,15.52,15.36,28.12,8.33
		C432.19,328.37,423.68,325.69,409.69,331.9 M543.19,249.33c1.13,14.24,10.46,21.38,23.62,18.08
		C564.31,254.21,556.43,248.18,543.19,249.33 M460.98,266.29c4.32,13.12,16.21,17.2,27.38,9.4
		C483.16,263.87,473.72,260.63,460.98,266.29 M540.77,330.35c0.59,15.57,7.97,22.01,22.49,20.25
		C561.54,336.94,555.43,331.3,540.77,330.35 M301.09,337.74c-14.6-0.58-22.23,6.55-22.14,20.09
		C292.42,358.49,299.66,352.11,301.09,337.74 M432.35,242.06c-8.11-10.79-19.78-11.58-28.64-1.96
		C411.88,250.49,421.75,251.16,432.35,242.06 M507.15,248.85c-4.36-12.34-15.02-16.73-26.59-10.93
		C485.3,250.85,494.68,254.7,507.15,248.85 M292.54,281.4c-14.91,1.45-21.85,8.81-20.61,21.41
		C286.82,301.69,293.19,295.31,292.54,281.4 M624.64,320.11c-7.78-11.63-19.21-13.16-28.91-4.3
		C601.68,326.55,611.23,328.1,624.64,320.11 M467.05,323.49c7.39,12.06,16.42,14.18,28.36,7.05
		C488.77,318.6,480.07,316.32,467.05,323.49 M350.15,273.15c14.83,3.7,22.54-0.82,24.52-13.88
		C360.37,256.5,353.08,260.48,350.15,273.15 M554.96,294.28c-8.11-11.89-19.69-13.98-28.25-5.09
		C533.87,300.5,542.53,302.06,554.96,294.28 M642.36,299.41c-3.01-13.26-11.3-17.8-24.72-13.54
		C620.09,299.11,627.65,303.25,642.36,299.41"/>
</g>
<g>
	<path class="st2" d="M580.59,557.95c15.73-11.67,30.1-23.85,45.84-33.65c21.27-13.23,44.53-20.28,69.83-16.25
		c13.56,2.16,20.09,9.5,21.31,23.72c4.42,51.61-29.79,95.13-81.8,103.63c-7.98,1.3-16.18,1.56-24.28,1.57
		c-107.12,0.13-214.26,1.72-321.34-0.45c-64.55-1.3-97.42-53.11-93.41-105.4c1.04-13.57,7.88-21.28,20.92-23.01
		c25.56-3.41,49.03,3.97,70.56,17.3c12.89,7.98,24.61,18.14,36.24,28.09c4.56,3.91,7.29,4.05,12.12,0.8
		c27.29-18.41,56.79-31.18,89.24-35.87c51.2-7.4,98.35,4.82,142.43,31.77C572.81,552.98,577.28,555.87,580.59,557.95"/>
</g>
<g>
	<path class="st2" d="M457.96,441.98c79.35,0,158.7-0.01,238.05,0.03c4.75,0,9.58-0.01,14.25,0.76
		c15.36,2.51,22.57,20.31,12.08,32.24c-5.47,6.22-13.9,11.32-21.83,13.24c-47.25,11.42-94.96,19.41-143.81,17.74
		c-32.73-1.12-64.34-7.55-95.3-18.34c-4.12-1.44-9.55-1.68-13.56-0.17c-48.68,18.38-98.73,22.8-149.73,15.63
		c-27.39-3.85-54.58-9.28-81.79-14.43c-10.09-1.91-19.4-6.1-24.54-16.32c-7.06-14.04,1.1-29.25,16.4-30.12
		c10.33-0.58,20.72-0.27,31.08-0.27C312.17,441.96,385.07,441.96,457.96,441.98"/>
</g>
<g>
	<path class="st1" d="M694.09,767.21c-11.81,0-23.49-5.23-31.33-15.25L220.42,186.75c-13.53-17.29-10.48-42.27,6.8-55.8
		c17.29-13.53,42.27-10.48,55.8,6.8l442.34,565.21c13.53,17.29,10.48,42.27-6.8,55.8C711.29,764.45,702.66,767.21,694.09,767.21z"/>
</g>
</svg>
